<?xml version="1.0" standalone="no"?>
<!DOCTYPE svg PUBLIC "-//W3C//DTD SVG 20010904//EN"
 "http://www.w3.org/TR/2001/REC-SVG-20010904/DTD/svg10.dtd">
<svg version="1.0" xmlns="http://www.w3.org/2000/svg"
 width="225.000000pt" height="225.000000pt" viewBox="0 0 225.000000 225.000000"
 preserveAspectRatio="xMidYMid meet">
<metadata>
Created by potrace 1.10, written by Peter Selinger 2001-2011
</metadata>
<g transform="translate(0.000000,225.000000) scale(0.100000,-0.100000)"
fill="#000000" stroke="none">
<path d="M954 2155 c-203 -31 -402 -125 -549 -257 l-49 -45 58 -26 c32 -15 62
-27 67 -27 20 0 7 18 -26 36 -21 11 -34 25 -33 34 4 18 208 175 208 160 0 -19
-80 -171 -123 -233 -82 -120 -262 -287 -355 -328 -24 -10 -32 -22 -41 -63 -15
-67 -28 -179 -26 -225 0 -20 2 -62 3 -93 l2 -57 48 -21 c127 -57 383 -130 454
-130 43 0 2 17 -91 39 -52 11 -159 42 -239 68 -124 40 -141 48 -121 57 311
124 543 307 715 563 l51 76 189 2 c104 1 200 7 214 12 l25 10 -23 7 c-12 4
-31 4 -43 1 -22 -7 -349 -15 -349 -8 0 2 16 35 35 74 33 64 91 224 101 273 10
53 16 82 20 99 6 20 -5 21 -122 2z m76 -74 c0 -109 -63 -258 -186 -436 -115
-168 -285 -346 -409 -427 -106 -70 -242 -138 -282 -141 l-28 -2 1 135 c1 192
5 204 106 272 169 115 292 266 389 475 16 35 39 69 51 77 58 38 247 93 326 95
32 1 32 1 32 -48z"/>
<path d="M1378 2090 c-65 -21 -186 -40 -259 -40 -35 0 -48 -3 -43 -11 17 -28
280 8 356 47 33 17 33 21 8 -86 -62 -260 -190 -523 -348 -715 -27 -33 -55 -59
-62 -57 -7 2 -63 7 -124 13 -100 8 -249 31 -301 46 -19 5 -19 4 -4 -12 21 -22
214 -55 336 -58 51 -1 93 -5 93 -8 0 -14 -203 -200 -284 -260 -120 -89 -282
-181 -408 -231 l-107 -42 17 -29 c28 -49 181 -206 247 -252 71 -50 196 -114
280 -143 125 -42 220 -55 375 -49 203 7 345 47 514 146 92 53 239 188 301 276
165 232 219 522 150 797 l-17 66 -102 -49 c-56 -28 -158 -70 -227 -94 -75 -26
-118 -46 -108 -49 29 -12 310 94 393 149 l29 19 -8 -24 c-20 -67 -102 -256
-152 -350 -100 -191 -228 -364 -375 -508 l-65 -63 -104 -7 c-57 -4 -194 -6
-304 -5 -156 1 -195 -1 -180 -10 44 -26 431 -20 545 8 71 18 -178 -158 -336
-237 l-102 -51 -108 28 c-60 15 -149 45 -198 66 -49 22 -95 39 -103 39 -32 0
-6 20 90 67 187 94 355 209 519 356 l87 78 79 4 c90 4 295 44 397 77 99 31 51
35 -66 5 -52 -14 -139 -32 -194 -41 -55 -9 -122 -21 -149 -26 -27 -6 -50 -9
-52 -8 -1 2 29 39 67 83 192 220 339 479 429 755 61 186 62 169 -17 232 -82
66 -166 117 -250 152 -72 30 -79 30 -155 6z m221 -75 c102 -52 205 -132 209
-161 5 -35 -75 -260 -143 -403 -36 -75 -65 -141 -65 -147 0 -32 -285 -414
-309 -414 -4 0 -47 -36 -97 -81 -80 -72 -128 -110 -339 -267 -33 -25 -110 -69
-171 -99 -109 -54 -112 -55 -142 -39 -71 37 -252 215 -252 247 0 6 26 21 58
35 145 64 246 123 371 217 175 131 405 359 486 480 63 95 165 288 165 313 0 8
15 59 34 112 18 53 42 132 52 175 14 63 21 77 37 77 10 0 58 -20 106 -45z
m506 -823 c0 -190 -12 -251 -75 -388 -136 -294 -400 -496 -733 -559 -84 -16
-187 -20 -187 -7 0 4 42 31 94 61 92 52 227 147 338 237 66 54 183 186 251
285 49 70 210 378 260 498 42 100 52 75 52 -127z"/>
</g>
</svg>
